<?xml version="1.0" encoding="utf-8"?>
<!-- Generator: Adobe Illustrator 15.0.0, SVG Export Plug-In . SVG Version: 6.00 Build 0)  -->
<!DOCTYPE svg PUBLIC "-//W3C//DTD SVG 1.1//EN" "http://www.w3.org/Graphics/SVG/1.1/DTD/svg11.dtd">
<svg version="1.1" id="Layer_1" xmlns="http://www.w3.org/2000/svg" xmlns:xlink="http://www.w3.org/1999/xlink" x="0px" y="0px"
	 width="96px" height="64px" viewBox="0 0 96 64" enable-background="new 0 0 96 64" xml:space="preserve">
<path fill="none" stroke="#CE1F3B" stroke-width="1.8477" stroke-miterlimit="10" d="M21.786,23.596
	c0.147,0.352,0.229,0.736,0.229,1.141c0,1.619-1.312,2.931-2.93,2.931H5.709c-1.618,0-2.931-1.312-2.931-2.931
	c0-0.93,0.435-1.76,1.111-2.296"/>
<path fill="none" stroke="#CE1F3B" stroke-width="1.8477" stroke-miterlimit="10" d="M42.403,24.129
	c0.041,0.196,0.063,0.4,0.063,0.607c0,1.619-1.313,2.931-2.931,2.931H26.16c-1.619,0-2.931-1.312-2.931-2.931
	c0-0.201,0.021-0.399,0.06-0.59"/>
<path fill="none" stroke="#CE1F3B" stroke-width="1.8477" stroke-miterlimit="10" d="M61.878,22.499
	c0.636,0.537,1.039,1.341,1.039,2.237c0,1.619-1.312,2.931-2.931,2.931H46.61c-1.619,0-2.931-1.312-2.931-2.931
	c0-0.369,0.069-0.723,0.194-1.048"/>
<path fill="none" stroke="#CE1F3B" stroke-width="1.8477" stroke-miterlimit="10" d="M32.907,16.36H4.464
	c-1.191,0-2.16-0.968-2.16-2.158v-3.331c0-3.888,5.941-6.449,9.482-7.631c0,0,6.337-2.316,21.121-2.316
	c14.783,0,21.12,2.316,21.12,2.316c3.541,1.182,9.48,3.743,9.48,7.631v3.331c0,1.19-0.968,2.158-2.158,2.158H32.907"/>
<path fill="none" stroke="#CE1F3B" stroke-width="1.8477" stroke-miterlimit="10" d="M54.615,24.351
	c-2.531,0-3.949-0.714-4.984-1.235c-0.775-0.391-1.165-0.587-2.254-0.587c-1.088,0-1.477,0.196-2.252,0.587
	c-1.036,0.521-2.455,1.235-4.983,1.235c-2.531,0-3.949-0.714-4.984-1.235c-0.775-0.391-1.166-0.587-2.253-0.587
	c-1.088,0-1.478,0.196-2.253,0.587c-1.035,0.521-2.453,1.235-4.984,1.235c-2.529,0-3.947-0.714-4.982-1.235
	c-0.776-0.391-1.165-0.587-2.253-0.587s-1.477,0.196-2.253,0.587c-1.034,0.521-2.453,1.235-4.983,1.235
	c-2.529,0-3.947-0.714-4.983-1.235c-0.775-0.391-1.164-0.587-2.252-0.587c-1.676,0-3.036-1.358-3.036-3.036
	c0-1.676,1.36-3.035,3.036-3.035c2.53,0,3.948,0.713,4.983,1.234c0.775,0.391,1.165,0.587,2.252,0.587
	c1.088,0,1.478-0.196,2.253-0.587c1.035-0.521,2.453-1.234,4.983-1.234c2.53,0,3.948,0.713,4.983,1.234
	c0.776,0.391,1.164,0.587,2.252,0.587s1.478-0.196,2.253-0.587c1.036-0.521,2.453-1.234,4.984-1.234c2.53,0,3.948,0.713,4.983,1.234
	c0.775,0.391,1.165,0.587,2.254,0.587c1.087,0,1.477-0.196,2.252-0.587c1.035-0.521,2.453-1.234,4.983-1.234
	c2.53,0,3.949,0.713,4.984,1.234c0.775,0.391,1.166,0.587,2.254,0.587s1.478-0.196,2.253-0.587c1.036-0.521,2.454-1.234,4.983-1.234
	c1.678,0,3.037,1.359,3.037,3.035c0,1.678-1.359,3.036-3.037,3.036c-1.088,0-1.478,0.196-2.252,0.587
	C58.563,23.637,57.146,24.351,54.615,24.351z"/>
<line fill="none" stroke="#CE1F3B" stroke-width="1.8477" stroke-linecap="round" stroke-miterlimit="10" x1="21.776" y1="1.448" x2="27.575" y2="7.247"/>
<line fill="none" stroke="#CE1F3B" stroke-width="1.8477" stroke-linecap="round" stroke-miterlimit="10" x1="29.758" y1="0.96" x2="35.521" y2="6.723"/>
<line fill="none" stroke="#CE1F3B" stroke-width="1.8477" stroke-linecap="round" stroke-miterlimit="10" x1="38.156" y1="1.075" x2="43.954" y2="6.875"/>
<path fill="none" stroke="#CE1F3B" stroke-width="1.8477" stroke-miterlimit="10" d="M63.18,28.04c0-0.206-0.166-0.373-0.373-0.373
	H2.89c-0.206,0-0.373,0.167-0.373,0.373v1.793c0,3.584,2.916,6.5,6.499,6.5H56.68c3.584,0,6.5-2.916,6.5-6.5V28.04z"/>
</svg>
