<?xml version="1.0" encoding="utf-8"?>
<!-- Generator: Adobe Illustrator 15.0.0, SVG Export Plug-In . SVG Version: 6.00 Build 0)  -->
<!DOCTYPE svg PUBLIC "-//W3C//DTD SVG 1.1//EN" "http://www.w3.org/Graphics/SVG/1.1/DTD/svg11.dtd">
<svg version="1.1" id="Layer_1" xmlns="http://www.w3.org/2000/svg" xmlns:xlink="http://www.w3.org/1999/xlink" x="0px" y="0px"
	 width="57.3px" height="55.05px" viewBox="0 0 57.3 55.05" enable-background="new 0 0 57.3 55.05" xml:space="preserve">
<g opacity="0.5">
	<path fill="#F1CDBC" d="M47.814,30.929C39.12,47.759,31.483,50.802,16.91,43.113c-8.787-4.596-11.385-14.498-6.337-24.119
		c4.955-9.557,21.944-16.2,30.243-11.525C49.471,12.397,54.799,21.375,47.814,30.929"/>
</g>
<g>
	<g>
		<path fill="#F6997D" d="M36.244,8.738c-0.023,0.392-0.143,0.513-0.482,0.49c-0.205-0.013-0.338-0.178-0.324-0.403
			c0.014-0.223,0.279-0.491,0.477-0.473C36.119,8.373,36.294,8.498,36.244,8.738"/>
	</g>
	<g>
		<path fill="#F6997D" d="M43.755,13.284c-0.191,0.376-0.361,0.446-0.688,0.277c-0.195-0.101-0.256-0.321-0.145-0.537
			c0.109-0.214,0.486-0.365,0.672-0.262C43.789,12.87,43.91,13.069,43.755,13.284"/>
	</g>
	<g>
		<path fill="#F6997D" d="M43.101,18.388c-0.387,0.342-0.611,0.345-0.906,0.005c-0.178-0.204-0.146-0.481,0.076-0.676
			c0.221-0.194,0.719-0.196,0.883,0.005C43.326,17.933,43.373,18.214,43.101,18.388"/>
	</g>
	<g>
		<path fill="#F6997D" d="M39.582,16.106c-0.16,0.318-0.305,0.377-0.58,0.234c-0.166-0.085-0.217-0.272-0.123-0.454
			c0.092-0.181,0.412-0.309,0.568-0.222C39.611,15.756,39.712,15.925,39.582,16.106"/>
	</g>
	<g>
		<path fill="#F6997D" d="M48.8,15.718c-0.162,0.318-0.305,0.377-0.58,0.234c-0.166-0.085-0.217-0.271-0.123-0.454
			c0.092-0.181,0.41-0.309,0.568-0.221C48.83,15.368,48.931,15.537,48.8,15.718"/>
	</g>
	<g>
		<path fill="#F6997D" d="M46.886,14.567c-0.16,0.318-0.305,0.377-0.58,0.234c-0.166-0.085-0.217-0.271-0.123-0.454
			c0.092-0.181,0.412-0.309,0.568-0.221C46.916,14.217,47.017,14.386,46.886,14.567"/>
	</g>
	<g>
		<path fill="#F6997D" d="M39.177,12.791c-0.162,0.318-0.305,0.377-0.58,0.234c-0.166-0.085-0.217-0.271-0.123-0.454
			c0.092-0.181,0.41-0.309,0.568-0.222C39.207,12.441,39.308,12.609,39.177,12.791"/>
	</g>
	<g>
		<path fill="#F6997D" d="M44.453,10.239c-0.16,0.318-0.305,0.377-0.58,0.234c-0.166-0.085-0.217-0.272-0.123-0.454
			c0.092-0.181,0.412-0.309,0.568-0.222C44.482,9.889,44.583,10.058,44.453,10.239"/>
	</g>
	<g>
		<path fill="#F6997D" d="M39.582,7.957c-0.16,0.318-0.305,0.377-0.58,0.234c-0.166-0.085-0.217-0.271-0.123-0.454
			c0.092-0.181,0.412-0.309,0.568-0.222C39.611,7.607,39.712,7.776,39.582,7.957"/>
	</g>
	<g>
		<path fill="#F6997D" d="M52.054,10.788c-0.16,0.318-0.305,0.377-0.58,0.234c-0.166-0.085-0.217-0.272-0.123-0.454
			c0.092-0.181,0.412-0.309,0.568-0.222C52.083,10.438,52.185,10.607,52.054,10.788"/>
	</g>
	<g>
		<path fill="#F6997D" d="M43.382,6.664c-0.25,0.494-0.473,0.584-0.9,0.363c-0.258-0.132-0.336-0.421-0.191-0.704
			c0.143-0.28,0.639-0.478,0.881-0.344C43.425,6.122,43.583,6.383,43.382,6.664"/>
	</g>
	<g>
		<path fill="#F6997D" d="M47.484,9.167c0.016,0.252-0.051,0.339-0.27,0.352c-0.133,0.008-0.23-0.087-0.238-0.232
			c-0.01-0.144,0.139-0.336,0.266-0.34C47.375,8.943,47.498,9.009,47.484,9.167"/>
	</g>
	<rect x="48.353" y="12.321" fill="none" width="1.367" height="0"/>
	<rect x="46.542" y="13.554" fill="none" width="1.365" height="0"/>
	<g>
		<path fill="#F6997D" d="M41.511,10.239c-0.16,0.318-0.305,0.377-0.58,0.234c-0.166-0.085-0.217-0.272-0.123-0.454
			c0.092-0.181,0.412-0.309,0.568-0.222C41.541,9.889,41.642,10.058,41.511,10.239"/>
	</g>
	<g>
		<path fill="#F6997D" d="M36.189,13.29c-0.16,0.319-0.305,0.377-0.58,0.234c-0.166-0.085-0.217-0.271-0.123-0.454
			c0.092-0.181,0.412-0.309,0.568-0.222C36.218,12.941,36.32,13.109,36.189,13.29"/>
	</g>
</g>
<g>
	<g>
		<path opacity="0.6" fill="#F1CDBC" d="M14.327,46.019c-0.783,0.114-1.073-0.069-1.167-0.751c-0.06-0.409,0.214-0.74,0.662-0.804
			c0.444-0.063,1.086,0.349,1.129,0.744C14.996,45.623,14.822,46.022,14.327,46.019"/>
	</g>
	<g>
		<path opacity="0.6" fill="#F1CDBC" d="M19.925,47.941c-0.346,1.082-0.766,1.339-1.704,1.031c-0.565-0.182-0.818-0.742-0.618-1.361
			c0.199-0.614,1.134-1.18,1.671-0.986C19.836,46.83,20.244,47.304,19.925,47.941"/>
	</g>
	<g>
		<path opacity="0.6" fill="#F1CDBC" d="M15.922,49.142c0.063,0.419-0.036,0.574-0.401,0.625c-0.219,0.031-0.396-0.115-0.43-0.354
			c-0.033-0.238,0.187-0.581,0.397-0.604C15.71,48.785,15.925,48.877,15.922,49.142"/>
	</g>
</g>
<g>
	<path fill="none" stroke="#CE1F3B" stroke-width="0.9932" stroke-linecap="round" stroke-miterlimit="10" d="M19.129,26.602
		l-4.488-0.162c-0.263-0.009-0.514-0.071-0.746-0.182c-0.324-0.156-0.596-0.405-0.785-0.722c-0.331-0.546-0.361-1.192-0.08-1.77
		c0.396-0.826,1.082-1.483,1.929-1.846l3.318-1.412"/>
	<path fill="none" stroke="#CE1F3B" stroke-width="0.9932" stroke-linecap="round" stroke-miterlimit="10" d="M22.646,27.879
		l-2.731-0.474c-0.084-0.014-0.17-0.041-0.251-0.08c-0.286-0.138-0.485-0.409-0.531-0.727l-0.979-6.979
		c-0.066-0.476,0.237-0.931,0.705-1.059l0.011-0.002c1.162-0.293,3.526-0.674,6.305,0.063l0.504,0.134"/>
	<path fill="none" stroke="#CE1F3B" stroke-width="0.9932" stroke-linecap="round" stroke-miterlimit="10" d="M33.518,33.53
		l2.924,3.407c0.172,0.199,0.377,0.357,0.608,0.47c0.324,0.155,0.688,0.212,1.054,0.163c0.633-0.083,1.156-0.461,1.433-1.042
		c0.398-0.824,0.484-1.771,0.239-2.658l-0.965-3.475"/>
	<path fill="none" stroke="#CE1F3B" stroke-width="0.9932" stroke-linecap="round" stroke-miterlimit="10" d="M30.325,31.576
		l2.075,1.84c0.063,0.057,0.138,0.107,0.218,0.146c0.286,0.138,0.623,0.124,0.9-0.038l6.066-3.587
		c0.413-0.245,0.58-0.766,0.389-1.211l-0.004-0.01c-0.496-1.092-1.673-3.177-3.981-4.89l-0.42-0.31"/>
	<path fill="none" stroke="#CE1F3B" stroke-width="0.9932" stroke-linecap="round" stroke-miterlimit="10" d="M23.183,28.663
		c-0.437-0.211-0.646-0.714-0.487-1.17l3.07-8.996c0.133-0.386,0.501-0.647,0.914-0.651l0.014,0
		c1.655,0.025,3.355,0.435,4.914,1.185l0.023,0.012c1.563,0.752,2.943,1.826,3.989,3.104c0.271,0.324,0.298,0.78,0.07,1.132
		l-5.117,8.01c-0.259,0.403-0.782,0.554-1.215,0.348L23.183,28.663L23.183,28.663z"/>
</g>
</svg>
