<?xml version="1.0" encoding="utf-8"?>
<!-- Generator: Adobe Illustrator 15.0.0, SVG Export Plug-In . SVG Version: 6.00 Build 0)  -->
<!DOCTYPE svg PUBLIC "-//W3C//DTD SVG 1.1//EN" "http://www.w3.org/Graphics/SVG/1.1/DTD/svg11.dtd">
<svg version="1.1" id="Layer_1" xmlns="http://www.w3.org/2000/svg" xmlns:xlink="http://www.w3.org/1999/xlink" x="0px" y="0px"
	 width="96px" height="64px" viewBox="0 0 96 64" enable-background="new 0 0 96 64" xml:space="preserve">
<path fill="none" stroke="#CE1F3B" stroke-width="1.8477" stroke-miterlimit="10" d="M15.657,27.736L6.643,31.68
	c-0.527,0.231-1.082,0.35-1.645,0.35c-0.788,0-1.561-0.235-2.235-0.68c-1.173-0.763-1.845-2.009-1.839-3.416
	c-0.004-2.008,0.726-3.956,2.054-5.478l5.209-5.942"/>
<path fill="none" stroke="#CE1F3B" stroke-width="1.8477" stroke-miterlimit="10" d="M23.814,26.913l-5.843,1.659
	c-0.179,0.053-0.374,0.081-0.571,0.081c-0.696,0-1.346-0.348-1.739-0.93L7.094,14.876C6.511,14,6.677,12.813,7.479,12.115
	L7.496,12.1c2.016-1.683,6.322-4.681,12.508-5.868l1.123-0.215"/>
<path fill="none" stroke="#CE1F3B" stroke-width="1.8477" stroke-miterlimit="10" d="M50.648,27.736l9.014,3.944
	c0.527,0.231,1.082,0.35,1.645,0.35c0.789,0,1.562-0.235,2.235-0.68c1.172-0.763,1.845-2.009,1.839-3.416
	c0.003-2.008-0.727-3.956-2.054-5.478l-5.209-5.942"/>
<path fill="none" stroke="#CE1F3B" stroke-width="1.8477" stroke-miterlimit="10" d="M42.49,26.913l5.843,1.659
	c0.179,0.053,0.375,0.081,0.571,0.081c0.695,0,1.347-0.348,1.74-0.93l8.566-12.848c0.583-0.876,0.417-2.063-0.385-2.761
	l-0.018-0.015c-2.016-1.683-6.322-4.681-12.508-5.868l-1.123-0.215"/>
<path fill="none" stroke="#CE1F3B" stroke-width="1.8477" stroke-miterlimit="10" d="M25.62,27.95
	c-1.063-0.002-1.955-0.797-2.074-1.849l-2.49-20.677c-0.104-0.887,0.373-1.752,1.185-2.155l0.027-0.013
	c3.292-1.525,7.036-2.332,10.826-2.332h0.059c3.801,0,7.545,0.809,10.828,2.338c0.839,0.383,1.33,1.256,1.212,2.168l-2.487,20.678
	c-0.127,1.044-1.017,1.836-2.069,1.842H25.622H25.62z"/>
</svg>
