<?xml version="1.0" encoding="utf-8"?>
<!-- Generator: Adobe Illustrator 15.0.0, SVG Export Plug-In . SVG Version: 6.00 Build 0)  -->
<!DOCTYPE svg PUBLIC "-//W3C//DTD SVG 1.1//EN" "http://www.w3.org/Graphics/SVG/1.1/DTD/svg11.dtd">
<svg version="1.1" id="Layer_1" xmlns="http://www.w3.org/2000/svg" xmlns:xlink="http://www.w3.org/1999/xlink" x="0px" y="0px"
	 width="56.5px" height="54.25px" viewBox="0 0 56.5 54.25" enable-background="new 0 0 56.5 54.25" xml:space="preserve">
<g opacity="0.5">
	<path fill="#F1CDBC" d="M48.447,30.534c-8.694,16.831-16.331,19.874-30.904,12.184C8.756,38.122,6.158,28.22,11.206,18.599
		c4.955-9.557,21.944-16.2,30.243-11.525C50.104,12.002,55.433,20.979,48.447,30.534"/>
</g>
<g>
	<path opacity="0.6" fill="none" stroke="#F6997D" stroke-width="2.5679" stroke-linecap="round" stroke-miterlimit="10" d="
		M144.328,180.501c-0.089,1.498-0.542,1.964-1.841,1.874c-0.781-0.049-1.287-0.683-1.231-1.537c0.049-0.849,1.065-1.875,1.813-1.802
		C143.85,179.113,144.524,179.588,144.328,180.501"/>
</g>
<g>
	<path opacity="0.6" fill="#F1CDBC" d="M47.458,39.74c-0.048,0.791-0.287,1.036-0.974,0.989c-0.413-0.026-0.681-0.361-0.651-0.813
		c0.029-0.449,0.563-0.992,0.959-0.953C47.207,39.005,47.563,39.256,47.458,39.74"/>
</g>
<g>
	<path opacity="0.6" fill="#F1CDBC" d="M50.484,34.653c0.989,0.56,1.154,1.024,0.661,1.879c-0.294,0.516-0.895,0.649-1.459,0.327
		c-0.561-0.321-0.923-1.352-0.624-1.837C49.378,34.513,49.926,34.211,50.484,34.653"/>
</g>
<g>
	<path opacity="0.6" fill="#F1CDBC" d="M50.842,38.817c0.423,0.025,0.555,0.153,0.529,0.521c-0.014,0.221-0.193,0.364-0.435,0.348
		c-0.24-0.016-0.53-0.301-0.51-0.513C50.448,38.951,50.583,38.76,50.842,38.817"/>
</g>
<g>
	<g>
		<path fill="#272634" d="M11.134,41.099c-0.023,0.392-0.143,0.513-0.482,0.49c-0.205-0.013-0.338-0.178-0.323-0.403
			c0.014-0.223,0.279-0.491,0.476-0.473C11.009,40.734,11.186,40.859,11.134,41.099"/>
	</g>
	<g>
		<path fill="#272634" d="M18.646,45.645c-0.191,0.376-0.361,0.446-0.688,0.277c-0.196-0.101-0.256-0.321-0.146-0.537
			c0.109-0.214,0.487-0.365,0.673-0.262C18.68,45.231,18.8,45.43,18.646,45.645"/>
	</g>
	<g>
		<path fill="#272634" d="M17.991,50.749c-0.387,0.342-0.611,0.345-0.905,0.005c-0.179-0.204-0.147-0.481,0.076-0.676
			c0.22-0.194,0.718-0.196,0.883,0.005C18.216,50.293,18.264,50.575,17.991,50.749"/>
	</g>
	<g>
		<path fill="#272634" d="M14.473,48.467c-0.161,0.318-0.305,0.377-0.581,0.234c-0.166-0.085-0.216-0.272-0.122-0.454
			c0.092-0.181,0.411-0.309,0.568-0.222C14.501,48.117,14.604,48.286,14.473,48.467"/>
	</g>
	<g>
		<path fill="#272634" d="M23.69,48.079c-0.161,0.318-0.305,0.377-0.58,0.234c-0.166-0.085-0.217-0.271-0.123-0.454
			c0.092-0.181,0.411-0.309,0.568-0.221C23.72,47.729,23.821,47.897,23.69,48.079"/>
	</g>
	<g>
		<path fill="#272634" d="M21.777,46.928c-0.161,0.318-0.305,0.377-0.58,0.234c-0.166-0.085-0.217-0.271-0.123-0.454
			c0.092-0.181,0.411-0.309,0.568-0.221C21.807,46.578,21.908,46.747,21.777,46.928"/>
	</g>
	<g>
		<path fill="#272634" d="M14.067,45.151c-0.161,0.318-0.305,0.377-0.58,0.234c-0.166-0.085-0.217-0.271-0.123-0.454
			c0.092-0.181,0.411-0.309,0.568-0.222C14.097,44.802,14.198,44.97,14.067,45.151"/>
	</g>
	<g>
		<path fill="#272634" d="M19.344,42.6c-0.161,0.318-0.305,0.377-0.581,0.234c-0.166-0.085-0.216-0.272-0.122-0.454
			c0.092-0.181,0.411-0.309,0.568-0.222C19.372,42.25,19.475,42.418,19.344,42.6"/>
	</g>
	<g>
		<path fill="#272634" d="M14.473,40.318c-0.161,0.318-0.305,0.377-0.581,0.234c-0.166-0.085-0.216-0.271-0.122-0.454
			c0.092-0.181,0.411-0.309,0.568-0.222C14.501,39.968,14.604,40.137,14.473,40.318"/>
	</g>
	<g>
		<path fill="#272634" d="M26.945,43.148c-0.161,0.318-0.305,0.377-0.58,0.234c-0.166-0.085-0.217-0.272-0.123-0.454
			c0.092-0.181,0.411-0.309,0.568-0.222C26.975,42.799,27.076,42.968,26.945,43.148"/>
	</g>
	<g>
		<path fill="#272634" d="M18.272,39.024c-0.25,0.494-0.473,0.584-0.9,0.363c-0.258-0.132-0.336-0.421-0.19-0.704
			c0.143-0.28,0.638-0.478,0.881-0.344C18.316,38.483,18.475,38.744,18.272,39.024"/>
	</g>
	<g>
		<path fill="#272634" d="M22.374,41.527c0.017,0.252-0.05,0.339-0.27,0.352c-0.132,0.008-0.229-0.087-0.238-0.232
			c-0.009-0.144,0.14-0.336,0.267-0.34C22.266,41.304,22.388,41.37,22.374,41.527"/>
	</g>
	<rect x="23.243" y="44.682" fill="none" width="1.367" height="0"/>
	<rect x="21.433" y="45.915" fill="none" width="1.366" height="0"/>
	<g>
		<path fill="#272634" d="M16.402,42.6c-0.161,0.318-0.305,0.377-0.58,0.234c-0.166-0.085-0.217-0.272-0.123-0.454
			c0.092-0.181,0.411-0.309,0.568-0.222C16.432,42.25,16.533,42.418,16.402,42.6"/>
	</g>
	<g>
		<path fill="#272634" d="M11.08,45.651c-0.161,0.319-0.305,0.377-0.58,0.234c-0.167-0.085-0.217-0.271-0.123-0.454
			c0.092-0.181,0.411-0.309,0.568-0.222C11.109,45.302,11.211,45.47,11.08,45.651"/>
	</g>
</g>
<g>
	<path fill="none" stroke="#F6997D" stroke-width="0.8" stroke-linecap="round" stroke-miterlimit="10" d="M24.407,10.953
		c-1.209-0.382-0.701-1.987-1.911-2.369c-1.213-0.384-1.72,1.219-2.932,0.835c-1.212-0.384-0.704-1.986-1.916-2.37"/>
</g>
<g>
	
		<line opacity="0.6" fill="none" stroke="#F6997D" stroke-width="2.5679" stroke-linecap="round" stroke-miterlimit="10" x1="341.241" y1="344.27" x2="341.425" y2="338.128"/>
	<g>
		
			<line opacity="0.6" fill="none" stroke="#F6997D" stroke-width="2.5679" stroke-linecap="round" stroke-miterlimit="10" x1="320.383" y1="349.238" x2="317.47" y2="344.27"/>
	</g>
	<g>
		
			<line opacity="0.6" fill="none" stroke="#F6997D" stroke-width="2.5679" stroke-linecap="round" stroke-miterlimit="10" x1="304.944" y1="364.586" x2="300.361" y2="361.733"/>
	</g>
	<g>
		
			<line opacity="0.6" fill="none" stroke="#F6997D" stroke-width="2.5679" stroke-linecap="round" stroke-miterlimit="10" x1="362.194" y1="349.787" x2="365.653" y2="344.821"/>
	</g>
	<g>
		
			<line opacity="0.6" fill="none" stroke="#F6997D" stroke-width="2.5679" stroke-linecap="round" stroke-miterlimit="10" x1="377.631" y1="364.307" x2="382.783" y2="362.242"/>
	</g>
	
		<line opacity="0.6" fill="none" stroke="#F6997D" stroke-width="2.5679" stroke-linecap="round" stroke-miterlimit="10" x1="300.251" y1="385.631" x2="293.916" y2="385.64"/>
	<g>
		
			<line opacity="0.6" fill="none" stroke="#F6997D" stroke-width="2.5679" stroke-linecap="round" stroke-miterlimit="10" x1="305.22" y1="405.94" x2="300.067" y2="409.506"/>
	</g>
	<g>
		
			<line opacity="0.6" fill="none" stroke="#F6997D" stroke-width="2.5679" stroke-linecap="round" stroke-miterlimit="10" x1="321.112" y1="421.928" x2="317.47" y2="426.937"/>
	</g>
	
		<line opacity="0.6" fill="none" stroke="#F6997D" stroke-width="2.5679" stroke-linecap="round" stroke-miterlimit="10" x1="341.425" y1="426.802" x2="341.425" y2="433.151"/>
	
		<line opacity="0.6" fill="none" stroke="#F6997D" stroke-width="2.5679" stroke-linecap="round" stroke-miterlimit="10" x1="383.791" y1="385.631" x2="388.935" y2="385.64"/>
	<g>
		
			<line opacity="0.6" fill="none" stroke="#F6997D" stroke-width="2.5679" stroke-linecap="round" stroke-miterlimit="10" x1="378.55" y1="406.492" x2="382.967" y2="409.398"/>
	</g>
	<g>
		
			<line opacity="0.6" fill="none" stroke="#F6997D" stroke-width="2.5679" stroke-linecap="round" stroke-miterlimit="10" x1="362.93" y1="421.104" x2="365.543" y2="426.581"/>
	</g>
</g>
<g>
	<path fill="none" stroke="#CE1F3B" stroke-width="0.9096" stroke-linecap="round" stroke-miterlimit="10" d="M29.288,20.726"/>
	<path fill="none" stroke="#CE1F3B" stroke-width="0.9096" stroke-linecap="round" stroke-miterlimit="10" d="M21.3,19.982"/>
	<path fill="none" stroke="#CE1F3B" stroke-width="0.9096" stroke-linecap="round" stroke-miterlimit="10" d="M30.863,21.019"/>
	<path fill="none" stroke="#CE1F3B" stroke-width="0.9096" stroke-linecap="round" stroke-miterlimit="10" d="M29.288,20.726"/>
	<path fill="none" stroke="#CE1F3B" stroke-width="0.9096" stroke-linecap="round" stroke-miterlimit="10" d="M36.732,22.591
		c-1.298,2.449-2.999,4.032-3.808,3.603c-0.738-0.392-0.471-2.371,0.57-4.576"/>
	<path fill="none" stroke="#CE1F3B" stroke-width="0.9096" stroke-linecap="round" stroke-miterlimit="10" d="M27.455,20.434
		l-2.53-0.292c-0.104,0.28-0.846,0.479-1.834,0.429c-0.989-0.05-1.806-0.312-1.791-0.589l0,0c-4.753,0.049-8.146,1.256-8.641,4.109
		c-0.537,3.108,5.397,5.499,14.001,6.988c8.603,1.49,16.619,1.517,17.156-1.591c0.507-2.924-2.432-5.245-7.084-6.897
		c-0.074,0.249-0.86,0.233-1.755-0.035c-0.894-0.27-1.539-0.687-1.464-0.936c-0.846-0.216-1.744-0.42-2.65-0.602
		c-0.14,0.314-0.295,0.634-0.467,0.958c-1.298,2.448-3.007,4.084-3.816,3.655C25.772,25.203,26.157,22.882,27.455,20.434z"/>
	<path fill="none" stroke="#CE1F3B" stroke-width="0.9096" stroke-linecap="round" stroke-miterlimit="10" d="M30.863,21.019
		c-0.147,0.321-0.851,0.305-1.789,0.142c-0.924-0.163-1.577-0.45-1.619-0.727"/>
	<path fill="none" stroke="#CE1F3B" stroke-width="0.9096" stroke-linecap="round" stroke-miterlimit="10" d="M21.295,20.007
		c-0.854,2.002-1.041,3.829-0.358,4.191c0.811,0.43,2.438-1.291,3.979-4.032"/>
</g>
</svg>
