<?xml version="1.0" encoding="utf-8"?>
<!-- Generator: Adobe Illustrator 15.0.0, SVG Export Plug-In . SVG Version: 6.00 Build 0)  -->
<!DOCTYPE svg PUBLIC "-//W3C//DTD SVG 1.1//EN" "http://www.w3.org/Graphics/SVG/1.1/DTD/svg11.dtd">
<svg version="1.1" id="Layer_1" xmlns="http://www.w3.org/2000/svg" xmlns:xlink="http://www.w3.org/1999/xlink" x="0px" y="0px"
	 width="57.3px" height="55.05px" viewBox="0 0 57.3 55.05" enable-background="new 0 0 57.3 55.05" xml:space="preserve">
<g opacity="0.5">
	<path fill="#F1CDBC" d="M47.814,30.929C39.12,47.759,31.483,50.802,16.91,43.113c-8.787-4.596-11.385-14.498-6.337-24.119
		c4.955-9.557,21.944-16.2,30.243-11.525C49.471,12.397,54.799,21.375,47.814,30.929"/>
</g>
<g>
	<g>
		<path fill="#F6997D" d="M36.244,8.738c-0.023,0.392-0.143,0.513-0.482,0.49c-0.205-0.013-0.338-0.178-0.324-0.403
			c0.014-0.223,0.279-0.491,0.477-0.473C36.119,8.373,36.294,8.498,36.244,8.738"/>
	</g>
	<g>
		<path fill="#F6997D" d="M43.755,13.284c-0.191,0.376-0.361,0.446-0.688,0.277c-0.195-0.101-0.256-0.321-0.145-0.537
			c0.109-0.214,0.486-0.365,0.672-0.262C43.789,12.87,43.91,13.069,43.755,13.284"/>
	</g>
	<g>
		<path fill="#F6997D" d="M43.101,18.388c-0.387,0.342-0.611,0.345-0.906,0.005c-0.178-0.204-0.146-0.481,0.076-0.676
			c0.221-0.194,0.719-0.196,0.883,0.005C43.326,17.933,43.373,18.214,43.101,18.388"/>
	</g>
	<g>
		<path fill="#F6997D" d="M39.582,16.106c-0.16,0.318-0.305,0.377-0.58,0.234c-0.166-0.085-0.217-0.272-0.123-0.454
			c0.092-0.181,0.412-0.309,0.568-0.222C39.611,15.756,39.712,15.925,39.582,16.106"/>
	</g>
	<g>
		<path fill="#F6997D" d="M48.8,15.718c-0.162,0.318-0.305,0.377-0.58,0.234c-0.166-0.085-0.217-0.271-0.123-0.454
			c0.092-0.181,0.41-0.309,0.568-0.221C48.83,15.368,48.931,15.537,48.8,15.718"/>
	</g>
	<g>
		<path fill="#F6997D" d="M46.886,14.567c-0.16,0.318-0.305,0.377-0.58,0.234c-0.166-0.085-0.217-0.271-0.123-0.454
			c0.092-0.181,0.412-0.309,0.568-0.221C46.916,14.217,47.017,14.386,46.886,14.567"/>
	</g>
	<g>
		<path fill="#F6997D" d="M39.177,12.791c-0.162,0.318-0.305,0.377-0.58,0.234c-0.166-0.085-0.217-0.271-0.123-0.454
			c0.092-0.181,0.41-0.309,0.568-0.222C39.207,12.441,39.308,12.609,39.177,12.791"/>
	</g>
	<g>
		<path fill="#F6997D" d="M44.453,10.239c-0.16,0.318-0.305,0.377-0.58,0.234c-0.166-0.085-0.217-0.272-0.123-0.454
			c0.092-0.181,0.412-0.309,0.568-0.222C44.482,9.889,44.583,10.058,44.453,10.239"/>
	</g>
	<g>
		<path fill="#F6997D" d="M39.582,7.957c-0.16,0.318-0.305,0.377-0.58,0.234c-0.166-0.085-0.217-0.271-0.123-0.454
			c0.092-0.181,0.412-0.309,0.568-0.222C39.611,7.607,39.712,7.776,39.582,7.957"/>
	</g>
	<g>
		<path fill="#F6997D" d="M52.054,10.788c-0.16,0.318-0.305,0.377-0.58,0.234c-0.166-0.085-0.217-0.272-0.123-0.454
			c0.092-0.181,0.412-0.309,0.568-0.222C52.083,10.438,52.185,10.607,52.054,10.788"/>
	</g>
	<g>
		<path fill="#F6997D" d="M43.382,6.664c-0.25,0.494-0.473,0.584-0.9,0.363c-0.258-0.132-0.336-0.421-0.191-0.704
			c0.143-0.28,0.639-0.478,0.881-0.344C43.425,6.122,43.583,6.383,43.382,6.664"/>
	</g>
	<g>
		<path fill="#F6997D" d="M47.484,9.167c0.016,0.252-0.051,0.339-0.27,0.352c-0.133,0.008-0.23-0.087-0.238-0.232
			c-0.01-0.144,0.139-0.336,0.266-0.34C47.375,8.943,47.498,9.009,47.484,9.167"/>
	</g>
	<rect x="48.353" y="12.321" fill="none" width="1.367" height="0"/>
	<rect x="46.542" y="13.554" fill="none" width="1.365" height="0"/>
	<g>
		<path fill="#F6997D" d="M41.511,10.239c-0.16,0.318-0.305,0.377-0.58,0.234c-0.166-0.085-0.217-0.272-0.123-0.454
			c0.092-0.181,0.412-0.309,0.568-0.222C41.541,9.889,41.642,10.058,41.511,10.239"/>
	</g>
	<g>
		<path fill="#F6997D" d="M36.189,13.29c-0.16,0.319-0.305,0.377-0.58,0.234c-0.166-0.085-0.217-0.271-0.123-0.454
			c0.092-0.181,0.412-0.309,0.568-0.222C36.218,12.941,36.32,13.109,36.189,13.29"/>
	</g>
</g>
<g>
	<path fill="none" stroke="#CE1F3B" stroke-width="0.7931" stroke-linecap="round" stroke-miterlimit="10" d="M18.478,15.353
		c-2.382,1.919-2.358,4.73-0.75,6.727c1.326,1.644,4.088,3.495,6.763,5.286c2.549,1.706,5.182,3.467,6.566,5.051l0.219,0.249"/>
	<path fill="none" stroke="#CE1F3B" stroke-width="0.7931" stroke-linecap="round" stroke-miterlimit="10" d="M18.478,15.353
		c2.38-1.918,5.122-1.298,6.73,0.699c1.326,1.644,2.547,4.737,3.728,7.732c1.124,2.852,2.286,5.799,3.539,7.489l0.198,0.266"/>
	<path fill="none" stroke="#CE1F3B" stroke-width="0.7931" stroke-linecap="round" stroke-miterlimit="10" d="M38.121,42.558
		c0.4,0.496,1.129,0.574,1.627,0.174l0.911-0.734c0.497-0.4,0.574-1.13,0.175-1.625l-6.787-8.423c-0.4-0.497-1.13-0.575-1.627-0.175
		l-0.911,0.733c-0.497,0.4-0.575,1.13-0.175,1.628L38.121,42.558z"/>
	<path fill="none" stroke="#CE1F3B" stroke-width="0.7931" stroke-linecap="round" stroke-miterlimit="10" d="M40.037,44.001
		c0.191,0.24,0.469,0.391,0.775,0.426c0.309,0.033,0.611-0.057,0.852-0.25c0.242-0.195,0.394-0.473,0.425-0.781
		c0.03-0.304-0.058-0.605-0.251-0.846c-0.193-0.241-0.469-0.391-0.776-0.426c-0.311-0.032-0.61,0.057-0.851,0.249
		c-0.242,0.195-0.393,0.472-0.425,0.778C39.753,43.46,39.843,43.761,40.037,44.001z"/>
	<path fill="none" stroke="#CE1F3B" stroke-width="0.7931" stroke-linecap="round" stroke-miterlimit="10" d="M32.355,31.828
		c-1.441-1.789-4.509-7.932-4.509-7.932c-1.412-2.693-2.778-5.237-3.996-6.749c-1.39-1.725-3.531-3.277-5.348-1.813"/>
	<path fill="none" stroke="#CE1F3B" stroke-width="0.7931" stroke-linecap="round" stroke-miterlimit="10" d="M18.452,15.374
		c-1.816,1.462-0.755,3.886,0.634,5.611c1.219,1.511,3.414,3.388,5.747,5.339c0,0,5.351,4.304,6.791,6.091"/>
	<path fill="none" stroke="#CE1F3B" stroke-width="0.7931" stroke-linecap="round" stroke-miterlimit="10" d="M32.121,32.015
		c-0.41-0.599-4.101-5.918-4.513-6.528l-0.278-0.412c-1.718-2.549-3.495-5.187-4.829-6.841c-1.437-1.782-3.632-3.197-4.022-2.881"/>
	<path fill="none" stroke="#CE1F3B" stroke-width="0.7931" stroke-linecap="round" stroke-miterlimit="10" d="M18.478,15.353
		c-0.393,0.316,0.522,2.762,1.958,4.543c1.333,1.656,3.532,3.952,5.658,6.174l0.344,0.359c0.509,0.534,4.921,5.271,5.42,5.797"/>
</g>
<g>
	<g>
		<path opacity="0.6" fill="#F1CDBC" d="M14.327,46.019c-0.783,0.114-1.073-0.069-1.167-0.751c-0.06-0.409,0.214-0.74,0.662-0.804
			c0.444-0.063,1.086,0.349,1.129,0.744C14.996,45.623,14.822,46.022,14.327,46.019"/>
	</g>
	<g>
		<path opacity="0.6" fill="#F1CDBC" d="M19.925,47.941c-0.346,1.082-0.766,1.339-1.704,1.031c-0.565-0.182-0.818-0.742-0.618-1.361
			c0.199-0.614,1.134-1.18,1.671-0.986C19.836,46.83,20.244,47.304,19.925,47.941"/>
	</g>
	<g>
		<path opacity="0.6" fill="#F1CDBC" d="M15.922,49.142c0.063,0.419-0.036,0.574-0.401,0.625c-0.219,0.031-0.396-0.115-0.43-0.354
			c-0.033-0.238,0.187-0.581,0.397-0.604C15.71,48.785,15.925,48.877,15.922,49.142"/>
	</g>
</g>
</svg>
