<?xml version="1.0" encoding="utf-8"?>
<!-- Generator: Adobe Illustrator 15.0.0, SVG Export Plug-In . SVG Version: 6.00 Build 0)  -->
<!DOCTYPE svg PUBLIC "-//W3C//DTD SVG 1.1//EN" "http://www.w3.org/Graphics/SVG/1.1/DTD/svg11.dtd">
<svg version="1.1" id="Layer_1" xmlns="http://www.w3.org/2000/svg" xmlns:xlink="http://www.w3.org/1999/xlink" x="0px" y="0px"
	 width="96px" height="64px" viewBox="0 0 96 64" enable-background="new 0 0 96 64" xml:space="preserve">
<line fill="none" stroke="#CE1F3B" stroke-width="1.5473" stroke-miterlimit="10" x1="85.62" y1="8.253" x2="85.621" y2="8.253"/>
<path fill="none" stroke="#CE1F3B" stroke-width="1.5473" stroke-miterlimit="10" d="M85.621,8.253
	c2.898,6.999-0.491,13.081-6.357,15.511c-4.834,2.002-13.035,2.744-20.979,3.462c-7.561,0.683-15.379,1.388-20.269,3.187
	l-0.769,0.282"/>
<path fill="none" stroke="#CE1F3B" stroke-width="1.5473" stroke-miterlimit="10" d="M85.621,8.253
	c-2.898-6.998-9.596-8.904-15.462-6.474C65.325,3.781,59,9.055,52.875,14.163c-5.83,4.864-11.857,9.894-16.587,12.078l-0.743,0.344"
	/>
<path fill="none" stroke="#CE1F3B" stroke-width="1.5473" stroke-miterlimit="10" d="M10.619,44.07
	c-1.459,0.604-3.138-0.092-3.744-1.553L5.767,39.84c-0.605-1.46,0.089-3.14,1.548-3.744l24.752-10.251
	c1.461-0.604,3.141,0.091,3.746,1.551l1.109,2.678c0.604,1.46-0.092,3.141-1.552,3.746L10.619,44.07z"/>
<path fill="none" stroke="#CE1F3B" stroke-width="1.5473" stroke-miterlimit="10" d="M4.742,44.938
	c-0.707,0.293-1.485,0.293-2.193,0.002c-0.711-0.297-1.263-0.848-1.556-1.555c-0.294-0.712-0.293-1.492,0.005-2.201
	c0.292-0.699,0.843-1.25,1.549-1.543c0.708-0.293,1.486-0.293,2.191-0.002C5.45,39.936,6,40.486,6.292,41.189
	c0.294,0.711,0.294,1.49,0,2.199C5.998,44.094,5.447,44.645,4.742,44.938z"/>
<path fill="none" stroke="#CE1F3B" stroke-width="1.5473" stroke-miterlimit="10" d="M35.894,27.589
	C41.148,25.413,55.111,15.7,55.111,15.7c6.267-4.181,12.259-8.087,16.701-9.927c5.07-2.101,11.565-2.933,13.777,2.406"/>
<path fill="none" stroke="#CE1F3B" stroke-width="1.5473" stroke-miterlimit="10" d="M85.65,8.326
	c2.211,5.34-2.971,9.344-8.041,11.443c-4.443,1.84-11.442,3.315-18.83,4.788c0,0-16.741,3.004-21.995,5.181"/>
<path fill="none" stroke="#CE1F3B" stroke-width="1.5473" stroke-miterlimit="10" d="M36.18,28.278
	c1.601-0.817,15.942-7.999,17.561-8.837l1.093-0.564c6.764-3.503,13.757-7.125,18.622-9.139c5.237-2.17,11.688-2.636,12.166-1.485"
	/>
<path fill="none" stroke="#CE1F3B" stroke-width="1.5473" stroke-miterlimit="10" d="M85.621,8.253
	c0.477,1.151-4.416,5.383-9.654,7.552c-4.863,2.015-12.369,4.398-19.629,6.703l-1.173,0.372c-1.737,0.553-16.957,5.614-18.667,6.168
	"/>
</svg>
